<mxfile host="app.diagrams.net" modified="2023-10-30T19:14:13.085Z" agent="Mozilla/5.0 (X11; Linux x86_64; rv:109.0) Gecko/20100101 Firefox/119.0" etag="efH8G0ubcdiLqa2Avv8n" version="22.0.8" type="device">
  <diagram name="Page-1" id="qK4CrDrhyuWczjo-dc9g">
    <mxGraphModel dx="662" dy="365" grid="1" gridSize="10" guides="1" tooltips="1" connect="1" arrows="1" fold="1" page="1" pageScale="1" pageWidth="850" pageHeight="1400" math="0" shadow="0">
      <root>
        <mxCell id="0" />
        <mxCell id="1" parent="0" />
        <mxCell id="jZYAEDFbmPcUrRGVf5uZ-1" value="" style="endArrow=blockThin;html=1;rounded=0;endFill=1;" parent="1" edge="1">
          <mxGeometry width="50" height="50" relative="1" as="geometry">
            <mxPoint x="80" y="560" as="sourcePoint" />
            <mxPoint x="80" y="390" as="targetPoint" />
          </mxGeometry>
        </mxCell>
        <mxCell id="jZYAEDFbmPcUrRGVf5uZ-2" value="" style="endArrow=blockThin;html=1;rounded=0;endFill=1;" parent="1" edge="1">
          <mxGeometry width="50" height="50" relative="1" as="geometry">
            <mxPoint x="40" y="520" as="sourcePoint" />
            <mxPoint x="370" y="520" as="targetPoint" />
          </mxGeometry>
        </mxCell>
        <mxCell id="jZYAEDFbmPcUrRGVf5uZ-6" value="" style="endArrow=open;html=1;rounded=0;endFill=0;" parent="1" edge="1">
          <mxGeometry width="50" height="50" relative="1" as="geometry">
            <mxPoint x="170" y="560" as="sourcePoint" />
            <mxPoint x="170" y="520" as="targetPoint" />
          </mxGeometry>
        </mxCell>
        <mxCell id="jZYAEDFbmPcUrRGVf5uZ-7" value="crisp value = 4.2" style="text;html=1;strokeColor=none;fillColor=none;align=center;verticalAlign=middle;whiteSpace=wrap;rounded=0;" parent="1" vertex="1">
          <mxGeometry x="110" y="560" width="120" height="30" as="geometry" />
        </mxCell>
        <mxCell id="jZYAEDFbmPcUrRGVf5uZ-8" value="A" style="text;html=1;strokeColor=none;fillColor=none;align=center;verticalAlign=middle;whiteSpace=wrap;rounded=0;" parent="1" vertex="1">
          <mxGeometry x="120" y="350" width="20" height="20" as="geometry" />
        </mxCell>
        <mxCell id="jZYAEDFbmPcUrRGVf5uZ-9" value="B" style="text;html=1;strokeColor=none;fillColor=none;align=center;verticalAlign=middle;whiteSpace=wrap;rounded=0;" parent="1" vertex="1">
          <mxGeometry x="180" y="350" width="20" height="20" as="geometry" />
        </mxCell>
        <mxCell id="jZYAEDFbmPcUrRGVf5uZ-10" value="C" style="text;html=1;strokeColor=none;fillColor=none;align=center;verticalAlign=middle;whiteSpace=wrap;rounded=0;" parent="1" vertex="1">
          <mxGeometry x="240" y="350" width="20" height="20" as="geometry" />
        </mxCell>
        <mxCell id="jZYAEDFbmPcUrRGVf5uZ-11" value="" style="triangle;whiteSpace=wrap;html=1;direction=north;dashed=1;fillColor=none;" parent="1" vertex="1">
          <mxGeometry x="80" y="380" width="100" height="140" as="geometry" />
        </mxCell>
        <mxCell id="jZYAEDFbmPcUrRGVf5uZ-14" value="" style="triangle;whiteSpace=wrap;html=1;direction=north;dashed=1;fillColor=none;" parent="1" vertex="1">
          <mxGeometry x="140" y="380" width="100" height="140" as="geometry" />
        </mxCell>
        <mxCell id="jZYAEDFbmPcUrRGVf5uZ-15" value="" style="triangle;whiteSpace=wrap;html=1;direction=north;dashed=1;fillColor=none;" parent="1" vertex="1">
          <mxGeometry x="200" y="380" width="100" height="140" as="geometry" />
        </mxCell>
        <mxCell id="jZYAEDFbmPcUrRGVf5uZ-3" value="" style="shape=trapezoid;perimeter=trapezoidPerimeter;whiteSpace=wrap;html=1;fixedSize=1;fillColor=#d5e8d4;strokeColor=#82b366;size=22.00000000000003;" parent="1" vertex="1">
          <mxGeometry x="80" y="460" width="100" height="60" as="geometry" />
        </mxCell>
        <mxCell id="jZYAEDFbmPcUrRGVf5uZ-4" value="" style="shape=trapezoid;perimeter=trapezoidPerimeter;whiteSpace=wrap;html=1;fixedSize=1;fillColor=#dae8fc;strokeColor=#6c8ebf;size=32.400000000000006;" parent="1" vertex="1">
          <mxGeometry x="140" y="430" width="100" height="90" as="geometry" />
        </mxCell>
        <mxCell id="jZYAEDFbmPcUrRGVf5uZ-16" value="" style="shape=trapezoid;perimeter=trapezoidPerimeter;whiteSpace=wrap;html=1;fixedSize=1;fillColor=#f8cecc;strokeColor=#b85450;size=17.60000000000005;" parent="1" vertex="1">
          <mxGeometry x="200" y="470" width="100" height="50" as="geometry" />
        </mxCell>
        <mxCell id="jZYAEDFbmPcUrRGVf5uZ-17" value="" style="endArrow=none;html=1;rounded=0;" parent="1" edge="1">
          <mxGeometry width="50" height="50" relative="1" as="geometry">
            <mxPoint x="301" y="509" as="sourcePoint" />
            <mxPoint x="301" y="529" as="targetPoint" />
            <Array as="points">
              <mxPoint x="301" y="519" />
            </Array>
          </mxGeometry>
        </mxCell>
        <mxCell id="jZYAEDFbmPcUrRGVf5uZ-18" value="10" style="text;html=1;strokeColor=none;fillColor=none;align=center;verticalAlign=middle;whiteSpace=wrap;rounded=0;" parent="1" vertex="1">
          <mxGeometry x="285" y="529" width="30" height="20" as="geometry" />
        </mxCell>
      </root>
    </mxGraphModel>
  </diagram>
</mxfile>
